<?xml version="1.0" encoding="UTF-8" standalone="no"?>
<!-- Generator: Adobe Illustrator 19.0.1, SVG Export Plug-In . SVG Version: 6.00 Build 0)  -->

<svg
   xmlns:dc="http://purl.org/dc/elements/1.1/"
   xmlns:cc="http://creativecommons.org/ns#"
   xmlns:rdf="http://www.w3.org/1999/02/22-rdf-syntax-ns#"
   xmlns:svg="http://www.w3.org/2000/svg"
   xmlns="http://www.w3.org/2000/svg"
   xmlns:sodipodi="http://sodipodi.sourceforge.net/DTD/sodipodi-0.dtd"
   xmlns:inkscape="http://www.inkscape.org/namespaces/inkscape"
   version="1.1"
   id="Layer_1"
   x="0px"
   y="0px"
   width="1121.8px"
   height="533.8px"
   viewBox="0 0 1121.8 533.8"
   style="enable-background:new 0 0 1121.8 533.8;"
   xml:space="preserve"
   sodipodi:docname="base0.svg"
   inkscape:version="0.92.3 (2405546, 2018-03-11)"><metadata
   id="metadata5221"><rdf:RDF><cc:Work
       rdf:about=""><dc:format>image/svg+xml</dc:format><dc:type
         rdf:resource="http://purl.org/dc/dcmitype/StillImage" /><dc:title></dc:title></cc:Work></rdf:RDF></metadata><defs
   id="defs5219" /><sodipodi:namedview
   pagecolor="#ffffff"
   bordercolor="#666666"
   borderopacity="1"
   objecttolerance="10"
   gridtolerance="10"
   guidetolerance="10"
   inkscape:pageopacity="0"
   inkscape:pageshadow="2"
   inkscape:window-width="1920"
   inkscape:window-height="1017"
   id="namedview5217"
   showgrid="false"
   inkscape:zoom="0.89759316"
   inkscape:cx="757.15502"
   inkscape:cy="328.12602"
   inkscape:window-x="1912"
   inkscape:window-y="-8"
   inkscape:window-maximized="1"
   inkscape:current-layer="Layer_1" />
<style
   type="text/css"
   id="style4697">
	.st0{fill:#1A1A1A;}
	.st1{display:none;}
	.st2{display:inline;}
	.st3{display:inline;fill:#1A1A1A;}
	.st4{display:inline;fill:#C1272D;}
	.st5{fill:#C1272D;}
	.st6{fill:#009245;}
	.st7{display:inline;opacity:8.000000e-002;fill:#FFFFFF;}
	.st8{display:inline;opacity:0.1;}
	.st9{display:none;fill:#C1272D;}
	.st10{display:none;fill:#009245;}
	.st11{display:none;fill:none;}
	.st12{fill:#FFFFFF;}
	.st13{fill:#141414;}
	.st14{fill:#0F0F0F;}
	.st15{enable-background:new    ;}
	.st16{fill:#FCEE21;}
	.st17{fill:#40E2A0;}
	.st18{fill:#0071BC;}
	.st19{fill:#FF69F8;}
	.st20{fill:#39B54A;}
	.st21{fill:#7CB2E8;}
	.st22{fill:#FF6666;}
</style>
<g
   id="g4763">
	<g
   id="g4761">
		<g
   id="g4705">
			<g
   id="g4703">
				<circle
   cx="565.8"
   cy="192.5"
   r="72"
   id="circle4699" />
				<circle
   class="st0"
   cx="565.8"
   cy="192.5"
   r="61.7"
   id="circle4701" />
			</g>
		</g>
		<g
   id="g4713">
			<g
   id="g4711">
				<circle
   cx="720.8"
   cy="126.5"
   r="72"
   id="circle4707" />
				<circle
   class="st0"
   cx="720.8"
   cy="126.5"
   r="61.7"
   id="circle4709" />
			</g>
		</g>
		<g
   id="g4721">
			<g
   id="g4719">
				<circle
   cx="888.8"
   cy="154.5"
   r="72"
   id="circle4715" />
				<circle
   class="st0"
   cx="888.8"
   cy="154.5"
   r="61.7"
   id="circle4717" />
			</g>
		</g>
		<g
   id="g4729">
			<g
   id="g4727">
				<circle
   cx="1049.8"
   cy="225.5"
   r="72"
   id="circle4723" />
				<circle
   class="st0"
   cx="1049.8"
   cy="225.5"
   r="61.7"
   id="circle4725" />
			</g>
		</g>
		<g
   id="g4737">
			<g
   id="g4735">
				<circle
   cx="1018.8"
   cy="407.5"
   r="72"
   id="circle4731" />
				<circle
   class="st0"
   cx="1018.8"
   cy="407.5"
   r="61.7"
   id="circle4733" />
			</g>
		</g>
		<g
   id="g4745">
			<g
   id="g4743">
				<circle
   cx="857.8"
   cy="336.5"
   r="72"
   id="circle4739" />
				<circle
   class="st0"
   cx="857.8"
   cy="336.5"
   r="61.7"
   id="circle4741" />
			</g>
		</g>
		<g
   id="g4753">
			<g
   id="g4751">
				<circle
   cx="688.8"
   cy="308.5"
   r="72"
   id="circle4747" />
				<circle
   class="st0"
   cx="688.8"
   cy="308.5"
   r="61.7"
   id="circle4749" />
			</g>
		</g>
		<g
   id="g4759">
			<circle
   cx="532.8"
   cy="373.5"
   r="72"
   id="circle4755" />
			<circle
   class="st0"
   cx="532.8"
   cy="373.5"
   r="61.7"
   id="circle4757" />
		</g>
	</g>
</g>
<g
   id="g4893">
	<g
   id="g4773">
		<g
   class="st1"
   id="g4769">
			<path
   class="st2"
   d="M303.8,251.5c-31.5,0-57,25.5-57,57c0,15.5,6.2,29.5,16.2,39.8l80.6-80.6     C333.4,257.7,319.3,251.5,303.8,251.5z"
   id="path4765" />
			<path
   class="st2"
   d="M343.6,267.7L263,348.3c10.4,10.6,24.8,17.2,40.8,17.2c31.5,0,57-25.5,57-57     C360.8,292.5,354.2,278.1,343.6,267.7z"
   id="path4767" />
		</g>
		<circle
   cx="303.8"
   cy="308.5"
   r="57"
   id="circle4771" />
	</g>
	<g
   id="Top_Right_2_"
   class="st1">
		<path
   class="st3"
   d="M305.1,413c2.9,0,5.2-2.4,5.1-5.3l-1.2-99.1c0-2.9-2.3-5.2-5.1-5.3c-2.9,0-5.2,2.3-5.3,5.1l1.2,99.4    C299.9,410.7,302.3,413,305.1,413z"
   id="path4775" />
		<circle
   class="st4"
   cx="304.5"
   cy="365.8"
   r="53"
   id="circle4777" />
		<circle
   class="st5"
   cx="303.8"
   cy="308.5"
   r="53"
   id="circle4779" />
		<circle
   class="st6"
   cx="311.7"
   cy="337.9"
   r="63.5"
   id="circle4781" />
		
			<ellipse
   transform="matrix(0.292 0.9564 -0.9564 0.292 609.7515 -14.1963)"
   class="st7"
   cx="314.5"
   cy="404.8"
   rx="5.2"
   ry="12.4"
   id="ellipse4783" />
		<path
   class="st8"
   d="M259.8,359.5c19.7-29,59.3-36.5,88.2-16.7c2.2,1.5,4.3,3.2,6.3,4.9c-3.7-10.1-10.4-19.2-20-25.7    c-24.2-16.5-57.2-10.2-73.6,14c-8,11.7-10.6,25.6-8.5,38.6C254.1,369.3,256.6,364.3,259.8,359.5z"
   id="path4785" />
	</g>
	<g
   id="Top_Right_3_"
   class="st1">
		<path
   class="st3"
   d="M378.6,381.5c2-2.1,2-5.3-0.1-7.4l-71-69.2c-2-2.1-5.3-2.1-7.4-0.1c-2.1,2-2.1,5.3-0.1,7.4l71.1,69.4    C373.3,383.5,376.6,383.5,378.6,381.5z"
   id="path4788" />
		<circle
   class="st4"
   cx="344.8"
   cy="348.5"
   r="53"
   id="circle4790" />
		<circle
   class="st5"
   cx="303.8"
   cy="308.5"
   r="53"
   id="circle4792" />
		<circle
   class="st6"
   cx="330.2"
   cy="323.7"
   r="63.5"
   id="circle4794" />
		
			<ellipse
   transform="matrix(0.8828 0.4698 -0.4698 0.8828 217.8534 -134.987)"
   class="st7"
   cx="379.4"
   cy="369.1"
   rx="5.2"
   ry="12.4"
   id="ellipse4796" />
		<path
   class="st8"
   d="M308.8,375.7c-6.5-34.5,16.1-67.7,50.6-74.2c2.7-0.5,5.3-0.8,7.9-1c-9.7-4.6-20.9-6.2-32.3-4.1    c-28.8,5.4-47.7,33.2-42.2,61.9c2.6,14,10.6,25.6,21.3,33.2C311.6,386.7,309.8,381.3,308.8,375.7z"
   id="path4798" />
	</g>
	<g
   id="Top_Right_4_"
   class="st1">
		<path
   class="st3"
   d="M199.4,309.8c0,2.9,2.4,5.2,5.3,5.1l99.1-1.2c2.9,0,5.2-2.3,5.3-5.1c0-2.9-2.3-5.2-5.1-5.3l-99.4,1.2    C201.6,304.6,199.3,306.9,199.4,309.8z"
   id="path4801" />
		<circle
   class="st4"
   cx="246.6"
   cy="309.2"
   r="53"
   id="circle4803" />
		<circle
   class="st5"
   cx="303.8"
   cy="308.5"
   r="53"
   id="circle4805" />
		<circle
   class="st6"
   cx="274.4"
   cy="316.4"
   r="63.5"
   id="circle4807" />
		
			<ellipse
   transform="matrix(-0.9564 0.292 -0.292 -0.9564 499.2879 563.7286)"
   class="st7"
   cx="207.6"
   cy="319.1"
   rx="5.2"
   ry="12.4"
   id="ellipse4809" />
		<path
   class="st8"
   d="M252.8,264.5c29,19.7,36.5,59.3,16.7,88.2c-1.5,2.2-3.2,4.3-4.9,6.3c10.1-3.7,19.2-10.4,25.7-20    c16.5-24.2,10.2-57.2-14-73.6c-11.7-8-25.6-10.6-38.6-8.5C243,258.7,248.1,261.2,252.8,264.5z"
   id="path4811" />
	</g>
	<g
   id="Top_Right_5_"
   class="st1">
		<path
   class="st3"
   d="M229.1,235.5c-2,2.1-2,5.3,0.1,7.4l71,69.2c2,2.1,5.3,2.1,7.4,0.1c2.1-2,2.1-5.3,0.1-7.4l-71.1-69.4    C234.4,233.4,231.1,233.5,229.1,235.5z"
   id="path4814" />
		<circle
   class="st4"
   cx="262.8"
   cy="268.5"
   r="53"
   id="circle4816" />
		<circle
   class="st5"
   cx="303.8"
   cy="308.5"
   r="53"
   id="circle4818" />
		<circle
   class="st6"
   cx="277.4"
   cy="293.3"
   r="63.5"
   id="circle4820" />
		
			<ellipse
   transform="matrix(-0.8828 -0.4698 0.4698 -0.8828 313.2623 574.0552)"
   class="st7"
   cx="228.2"
   cy="247.9"
   rx="5.2"
   ry="12.4"
   id="ellipse4822" />
		<path
   class="st8"
   d="M298.9,241.3c6.5,34.5-16.1,67.7-50.6,74.2c-2.7,0.5-5.3,0.8-7.9,1c9.7,4.6,20.9,6.2,32.3,4.1    c28.8-5.4,47.7-33.2,42.2-61.9c-2.6-14-10.6-25.6-21.3-33.2C296,230.3,297.8,235.7,298.9,241.3z"
   id="path4824" />
	</g>
	<g
   id="Top_Right_6_"
   class="st1">
		<path
   class="st3"
   d="M302.5,204c-2.9,0-5.2,2.4-5.1,5.3l1.2,99.1c0,2.9,2.3,5.2,5.1,5.3c2.9,0,5.2-2.3,5.3-5.1l-1.2-99.4    C307.8,206.3,305.4,204,302.5,204z"
   id="path4827" />
		<circle
   class="st4"
   cx="303.1"
   cy="251.2"
   r="53"
   id="circle4829" />
		<circle
   class="st5"
   cx="303.8"
   cy="308.5"
   r="53"
   id="circle4831" />
		<circle
   class="st6"
   cx="295.9"
   cy="279.1"
   r="63.5"
   id="circle4833" />
		
			<ellipse
   transform="matrix(-0.292 -0.9564 0.9564 -0.292 175.8517 554.639)"
   class="st7"
   cx="293.2"
   cy="212.2"
   rx="5.2"
   ry="12.4"
   id="ellipse4835" />
		<path
   class="st8"
   d="M347.9,257.5c-19.7,29-59.3,36.5-88.2,16.7c-2.2-1.5-4.3-3.2-6.3-4.9c3.7,10.1,10.4,19.2,20,25.7    c24.2,16.5,57.2,10.2,73.6-14c8-11.7,10.6-25.6,8.5-38.6C353.6,247.7,351.1,252.7,347.9,257.5z"
   id="path4837" />
	</g>
	<g
   id="Top_Right_7_"
   class="st1">
		<path
   class="st3"
   d="M408.3,307.2c0-2.9-2.4-5.2-5.3-5.1l-99.1,1.2c-2.9,0-5.2,2.3-5.3,5.1c0,2.9,2.3,5.2,5.1,5.3l99.4-1.2    C406,312.4,408.3,310.1,408.3,307.2z"
   id="path4840" />
		<circle
   class="st4"
   cx="361.1"
   cy="307.8"
   r="53"
   id="circle4842" />
		<circle
   class="st5"
   cx="303.8"
   cy="308.5"
   r="53"
   id="circle4844" />
		<circle
   class="st6"
   cx="333.3"
   cy="300.6"
   r="63.5"
   id="circle4846" />
		
			<ellipse
   transform="matrix(0.9564 -0.292 0.292 0.9564 -69.5474 129.8289)"
   class="st7"
   cx="400.1"
   cy="297.9"
   rx="5.2"
   ry="12.4"
   id="ellipse4848" />
		<path
   class="st8"
   d="M354.8,352.5c-29-19.7-36.5-59.3-16.7-88.2c1.5-2.2,3.2-4.3,4.9-6.3c-10.1,3.7-19.2,10.4-25.7,20    c-16.5,24.2-10.2,57.2,14,73.6c11.7,8,25.6,10.6,38.6,8.5C364.6,358.3,359.6,355.8,354.8,352.5z"
   id="path4850" />
	</g>
	<g
   id="Top_Right_1_"
   class="st1">
		<path
   class="st3"
   d="M230.9,383.3c2.1,2,5.3,2,7.4-0.1l69.2-71c2.1-2,2.1-5.3,0.1-7.4c-2-2.1-5.3-2.1-7.4-0.1l-69.4,71.1    C228.8,378,228.8,381.3,230.9,383.3z"
   id="path4853" />
		<circle
   class="st4"
   cx="263.8"
   cy="349.5"
   r="53"
   id="circle4855" />
		<circle
   class="st5"
   cx="303.8"
   cy="308.5"
   r="53"
   id="circle4857" />
		<circle
   class="st6"
   cx="288.6"
   cy="334.9"
   r="63.5"
   id="circle4859" />
		
			<ellipse
   transform="matrix(-0.4698 0.8828 -0.8828 -0.4698 696.6351 349.7614)"
   class="st7"
   cx="243.3"
   cy="384.1"
   rx="5.2"
   ry="12.4"
   id="ellipse4861" />
		<path
   class="st8"
   d="M236.6,313.4c34.5-6.5,67.7,16.1,74.2,50.6c0.5,2.7,0.8,5.3,1,7.9c4.6-9.7,6.2-20.9,4.1-32.3    c-5.4-28.8-33.2-47.7-61.9-42.2c-14,2.6-25.6,10.6-33.2,21.3C225.7,316.3,231,314.5,236.6,313.4z"
   id="path4863" />
	</g>
	<g
   id="Top_Right"
   class="st1">
		<path
   class="st3"
   d="M376.8,233.7c-2.1-2-5.3-2-7.4,0.1l-69.2,71c-2.1,2-2.1,5.3-0.1,7.4c2,2.1,5.3,2.1,7.4,0.1l69.4-71.1    C378.9,239,378.8,235.7,376.8,233.7z"
   id="path4866" />
		<circle
   class="st4"
   cx="343.8"
   cy="267.5"
   r="53"
   id="circle4868" />
		<circle
   class="st5"
   cx="303.8"
   cy="308.5"
   r="53"
   id="circle4870" />
		<circle
   class="st6"
   cx="319.1"
   cy="282.1"
   r="63.5"
   id="circle4872" />
		
			<ellipse
   transform="matrix(0.4698 -0.8828 0.8828 0.4698 -12.4071 445.1703)"
   class="st7"
   cx="364.4"
   cy="232.9"
   rx="5.2"
   ry="12.4"
   id="ellipse4874" />
		<path
   class="st8"
   d="M371,303.6c-34.5,6.5-67.7-16.1-74.2-50.6c-0.5-2.7-0.8-5.3-1-7.9c-4.6,9.7-6.2,20.9-4.1,32.3    c5.4,28.8,33.2,47.7,61.9,42.2c14-2.6,25.6-10.6,33.2-21.3C382,300.7,376.7,302.5,371,303.6z"
   id="path4876" />
	</g>
	<g
   id="g4883">
		<circle
   class="st9"
   cx="303.8"
   cy="308.5"
   r="53"
   id="circle4879" />
		<circle
   class="st10"
   cx="319.1"
   cy="282.1"
   r="63.5"
   id="circle4881" />
	</g>
	<g
   id="g4891">
		<line
   class="st11"
   x1="253"
   y1="402"
   x2="253"
   y2="214"
   id="line4885" />
		<line
   class="st11"
   x1="159"
   y1="309"
   x2="347"
   y2="309"
   id="line4887" />
		<line
   class="st11"
   x1="186.4"
   y1="242"
   x2="319.3"
   y2="375"
   id="line4889" />
	</g>
</g>
<g
   id="g4899">
	<circle
   cx="82.4"
   cy="92.5"
   r="41"
   id="circle4895" />
	<circle
   class="st0"
   cx="82.4"
   cy="92.5"
   r="35.1"
   id="circle4897" />
</g>

<g
   id="g4907">
	<circle
   cx="81.3"
   cy="235.5"
   r="41"
   id="circle4903" />
	<circle
   class="st0"
   cx="81.3"
   cy="235.5"
   r="35.1"
   id="circle4905" />
</g>











</svg>